<svg width="40" height="40" viewBox="0 0 40 40" fill="none" xmlns="http://www.w3.org/2000/svg">
<rect width="40" height="40" rx="8" fill="#FFEEEE"/>
<path d="M20 15C19.45 15 18.9793 14.8043 18.588 14.413C18.1967 14.0217 18.0007 13.5507 18 13C17.9993 12.4493 18.1953 11.9787 18.588 11.588C18.9807 11.1973 19.4513 11.0013 20 11C20.5487 10.9987 21.0197 11.1947 21.413 11.588C21.8063 11.9813 22.002 12.452 22 13C21.998 13.548 21.8023 14.019 21.413 14.413C21.0237 14.807 20.5527 15.0027 20 15ZM20 29C19.5833 29 19.2293 28.8543 18.938 28.563C18.6467 28.2717 18.5007 27.9173 18.5 27.5V18.5C18.5 18.0833 18.646 17.7293 18.938 17.438C19.23 17.1467 19.584 17.0007 20 17C20.416 16.9993 20.7703 17.1453 21.063 17.438C21.3557 17.7307 21.5013 18.0847 21.5 18.5V27.5C21.5 27.9167 21.3543 28.271 21.063 28.563C20.7717 28.855 20.4173 29.0007 20 29Z" fill="#FF5555"/>
</svg>
