<svg width="40" height="40" viewBox="0 0 40 40" fill="none" xmlns="http://www.w3.org/2000/svg">
<rect width="40" height="40" rx="8" fill="#EDF5FF"/>
<path d="M25 27.5C25 25.843 22.761 24.5 20 24.5C17.239 24.5 15 25.843 15 27.5M29 24.5C29 23.27 27.766 22.213 26 21.75M11 24.5C11 23.27 12.234 22.213 14 21.75M26 17.736C26.2963 17.4741 26.5378 17.1562 26.7108 16.8006C26.8838 16.445 26.9847 16.0587 27.0079 15.664C27.031 15.2692 26.9759 14.8738 26.8456 14.5004C26.7154 14.127 26.5127 13.7831 26.249 13.4883C25.9854 13.1936 25.6661 12.9539 25.3095 12.783C24.9529 12.6121 24.5661 12.5134 24.1712 12.4925C23.7763 12.4717 23.3812 12.5291 23.0086 12.6615C22.636 12.7939 22.2932 12.9987 22 13.264M14 17.736C13.4123 17.2041 13.059 16.4613 13.0172 15.6698C12.9754 14.8783 13.2485 14.1024 13.777 13.5116C14.3054 12.9208 15.0461 12.5632 15.8374 12.5168C16.6287 12.4704 17.4062 12.739 18 13.264M20 21.5C19.2044 21.5 18.4413 21.1839 17.8787 20.6213C17.3161 20.0587 17 19.2956 17 18.5C17 17.7044 17.3161 16.9413 17.8787 16.3787C18.4413 15.8161 19.2044 15.5 20 15.5C20.7956 15.5 21.5587 15.8161 22.1213 16.3787C22.6839 16.9413 23 17.7044 23 18.5C23 19.2956 22.6839 20.0587 22.1213 20.6213C21.5587 21.1839 20.7956 21.5 20 21.5Z" stroke="#4D96FF" stroke-width="1.5" stroke-linecap="round" stroke-linejoin="round"/>
</svg>
