<svg width="40" height="40" viewBox="0 0 40 40" fill="none" xmlns="http://www.w3.org/2000/svg">
<rect width="40" height="40" rx="8" fill="#E8F9F2"/>
<path d="M17.55 23.15L26.025 14.675C26.225 14.475 26.4583 14.375 26.725 14.375C26.9917 14.375 27.225 14.475 27.425 14.675C27.625 14.875 27.725 15.1127 27.725 15.388C27.725 15.6633 27.625 15.9007 27.425 16.1L18.25 25.3C18.05 25.5 17.8167 25.6 17.55 25.6C17.2833 25.6 17.05 25.5 16.85 25.3L12.55 21C12.35 20.8 12.254 20.5627 12.262 20.288C12.27 20.0133 12.3743 19.7757 12.575 19.575C12.7757 19.3743 13.0133 19.2743 13.288 19.275C13.5627 19.2757 13.8 19.3757 14 19.575L17.55 23.15Z" fill="#16C47F"/>
</svg>
